<?xml version="1.0" encoding="utf-8"?>
<svg version="1.1" xmlns="http://www.w3.org/2000/svg" x="0px" y="0px"
	 viewBox="0 0 150.51 54.74" enable-background="new 0 0 150.51 54.74" xml:space="preserve">
<g>
	<g>
		<polygon fill="#FFFFFF" points="44.26,5.67 35.01,21.79 29.82,12.74 24.94,15.63 32.14,28.15 32.14,45.29 37.85,45.29 
			37.85,28.15 37.87,28.12 50.83,5.67 		"/>
		<path fill="#FFFFFF" d="M23.02,5.67c-1.43-0.62-3.01-0.93-4.72-0.93c-3.41,0-6.27,1.02-8.56,3.05C7.45,9.81,6.3,12.31,6.3,15.31
			c0,4.45,2.73,7.83,8.2,10.14l3.85,1.6c1,0.43,1.86,0.89,2.59,1.36c0.72,0.48,1.31,0.98,1.77,1.53c0.46,0.54,0.79,1.14,1.01,1.78
			c0.21,0.65,0.32,1.36,0.32,2.13c0,1.93-0.62,3.53-1.86,4.78c-1.24,1.26-2.8,1.89-4.68,1.89c-2.38,0-4.19-0.86-5.43-2.59
			c-0.69-0.9-1.17-2.52-1.45-4.86l-6.1,1.35c0.55,3.72,1.94,6.61,4.16,8.66c2.26,2.05,5.12,3.08,8.59,3.08
			c3.66,0,6.72-1.21,9.18-3.62c2.45-2.4,3.67-5.43,3.67-9.1c0-2.74-0.75-5.06-2.25-6.95c-1.5-1.89-3.87-3.49-7.11-4.8l-3.98-1.63
			c-2.9-1.19-4.35-2.76-4.35-4.71c0-1.41,0.55-2.59,1.66-3.52c1.1-0.95,2.49-1.42,4.16-1.42c1.36,0,2.47,0.28,3.34,0.83
			c0.59,0.34,1.19,0.97,1.82,1.86l4.89-2.9C26.83,8.07,25.07,6.55,23.02,5.67z"/>
	</g>
	<g>
		<path fill="#FFFFFF" d="M50.75,31.36h1.71v5.99h0.04c0.61-1.06,1.71-1.73,3.25-1.73c2.38,0,4.04,1.97,4.04,4.84
			c0,3.41-2.17,5.1-4.29,5.1c-1.38,0-2.48-0.53-3.21-1.77h-0.04l-0.1,1.56h-1.48c0.04-0.65,0.08-1.61,0.08-2.46V31.36z M52.46,41.52
			c0,0.22,0.02,0.43,0.08,0.63c0.31,1.2,1.34,2.03,2.6,2.03c1.83,0,2.89-1.48,2.89-3.66c0-1.91-0.98-3.54-2.85-3.54
			c-1.16,0-2.26,0.83-2.62,2.13c-0.06,0.22-0.1,0.45-0.1,0.73V41.52z"/>
		<path fill="#FFFFFF" d="M62.45,35.81l2.07,5.63c0.24,0.63,0.47,1.38,0.63,1.95h0.04c0.18-0.57,0.37-1.3,0.61-1.99l1.89-5.59h1.83
			l-2.6,6.79c-1.24,3.27-2.09,4.92-3.27,5.97c-0.87,0.73-1.69,1.02-2.13,1.1l-0.43-1.44c0.43-0.14,1-0.41,1.52-0.85
			c0.47-0.37,1.04-1.04,1.46-1.93c0.08-0.18,0.14-0.31,0.14-0.41c0-0.1-0.04-0.24-0.14-0.45l-3.5-8.78H62.45z"/>
		<path fill="#FFFFFF" d="M84.58,44.92c-0.61,0.31-1.89,0.63-3.5,0.63c-3.74,0-6.54-2.36-6.54-6.73c0-4.17,2.82-6.97,6.93-6.97
			c1.63,0,2.7,0.35,3.15,0.59l-0.43,1.4c-0.63-0.31-1.56-0.55-2.66-0.55c-3.11,0-5.18,1.99-5.18,5.47c0,3.27,1.87,5.34,5.08,5.34
			c1.06,0,2.13-0.22,2.82-0.55L84.58,44.92z"/>
		<path fill="#FFFFFF" d="M87.43,40.89c0.04,2.34,1.52,3.31,3.27,3.31c1.24,0,2.01-0.22,2.64-0.49l0.32,1.24
			c-0.61,0.28-1.67,0.61-3.19,0.61c-2.93,0-4.69-1.95-4.69-4.82c0-2.87,1.69-5.12,4.47-5.12c3.13,0,3.94,2.72,3.94,4.47
			c0,0.35-0.02,0.61-0.06,0.81H87.43z M92.51,39.65c0.02-1.08-0.45-2.8-2.4-2.8c-1.77,0-2.52,1.59-2.66,2.8H92.51z"/>
		<path fill="#FFFFFF" d="M104.48,43.94c0,2.2-0.45,3.52-1.36,4.37c-0.94,0.85-2.28,1.14-3.48,1.14c-1.14,0-2.4-0.28-3.17-0.79
			l0.43-1.34c0.63,0.41,1.61,0.77,2.8,0.77c1.77,0,3.07-0.93,3.07-3.35V43.7h-0.04c-0.51,0.89-1.56,1.6-3.03,1.6
			c-2.36,0-4.06-2.01-4.06-4.65c0-3.23,2.11-5.04,4.31-5.04c1.65,0,2.54,0.85,2.97,1.63h0.04l0.06-1.44h1.54
			c-0.06,0.67-0.08,1.46-0.08,2.6V43.94z M102.75,39.57c0-0.3-0.02-0.55-0.1-0.77c-0.31-1.02-1.14-1.85-2.42-1.85
			c-1.65,0-2.84,1.4-2.84,3.6c0,1.87,0.96,3.43,2.82,3.43c1.08,0,2.05-0.67,2.4-1.77c0.1-0.3,0.14-0.63,0.14-0.93V39.57z"/>
		<path fill="#FFFFFF" d="M108.3,40.89c0.04,2.34,1.52,3.31,3.27,3.31c1.24,0,2.01-0.22,2.64-0.49l0.32,1.24
			c-0.61,0.28-1.67,0.61-3.19,0.61c-2.93,0-4.69-1.95-4.69-4.82c0-2.87,1.69-5.12,4.47-5.12c3.13,0,3.94,2.72,3.94,4.47
			c0,0.35-0.02,0.61-0.06,0.81H108.3z M113.38,39.65c0.02-1.08-0.45-2.8-2.4-2.8c-1.77,0-2.52,1.59-2.66,2.8H113.38z"/>
		<path fill="#FFFFFF" d="M125.41,31.36v11.52c0,0.85,0.04,1.81,0.08,2.46h-1.54l-0.08-1.65h-0.06c-0.51,1.06-1.65,1.87-3.21,1.87
			c-2.3,0-4.1-1.95-4.1-4.84c-0.02-3.17,1.97-5.1,4.27-5.1c1.48,0,2.44,0.69,2.87,1.44h0.04v-5.69H125.41z M123.69,39.69
			c0-0.22-0.02-0.51-0.08-0.73c-0.26-1.08-1.2-1.99-2.5-1.99c-1.79,0-2.86,1.57-2.86,3.66c0,1.93,0.96,3.52,2.82,3.52
			c1.16,0,2.22-0.79,2.54-2.07c0.06-0.24,0.08-0.47,0.08-0.75V39.69z"/>
		<path fill="#FFFFFF" d="M130.23,33.13c0,0.59-0.41,1.06-1.1,1.06c-0.63,0-1.04-0.47-1.04-1.06c0-0.59,0.43-1.08,1.08-1.08
			C129.8,32.05,130.23,32.52,130.23,33.13z M128.3,45.34v-9.53h1.73v9.53H128.3z"/>
		<path fill="#FFFFFF" d="M132.91,38.39c0-1-0.04-1.79-0.08-2.58h1.52l0.08,1.56h0.06c0.53-0.91,1.42-1.75,3.01-1.75
			c1.28,0,2.26,0.79,2.68,1.91h0.04c0.3-0.55,0.69-0.95,1.08-1.24c0.57-0.43,1.18-0.67,2.09-0.67c1.28,0,3.15,0.83,3.15,4.13v5.59
			h-1.69v-5.38c0-1.85-0.69-2.93-2.07-2.93c-1,0-1.75,0.73-2.07,1.56c-0.08,0.26-0.14,0.55-0.14,0.87v5.89h-1.69v-5.71
			c0-1.52-0.67-2.6-1.99-2.6c-1.06,0-1.87,0.87-2.15,1.73c-0.1,0.24-0.14,0.55-0.14,0.85v5.73h-1.69V38.39z"/>
	</g>
</g>
</svg>
